<svg id="SILVERETTE_LOGO" data-name="SILVERETTE LOGO" xmlns="http://www.w3.org/2000/svg" xmlns:xlink="http://www.w3.org/1999/xlink" width="408.769" height="85.128" viewBox="0 0 408.769 85.128">
  <defs>
    <linearGradient id="linear-gradient" x1="0.5" y1="1" x2="0.5" gradientUnits="objectBoundingBox">
      <stop offset="0" stop-color="#d78188"/>
      <stop offset="1" stop-color="#c46797"/>
    </linearGradient>
  </defs>
  <path id="Tracciato_1" data-name="Tracciato 1" d="M231.288-154.73h-1.646c-.463,0-.568-.255-.568-.568v-.48c0-.313.1-.569.568-.569h5.06c.463,0,.568.256.568.569v.48c0,.313-.105.568-.568.568h-1.646v8.562c0,.463-.256.568-.569.568h-.63c-.314,0-.569-.1-.569-.568Z" transform="translate(-33.723 170.144)" fill="#546068"/>
  <path id="Tracciato_2" data-name="Tracciato 2" d="M237.927-155.779c0-.463.253-.568.569-.568h.642c.315,0,.569.1.569.568v3.817h3.054v-3.817c0-.463.254-.568.57-.568h.613c.314,0,.568.1.568.568v9.61c0,.463-.254.568-.568.568h-.613c-.316,0-.57-.1-.57-.568v-4.19h-3.054v4.19c0,.463-.254.568-.569.568H238.5c-.316,0-.569-.1-.569-.568Z" transform="translate(-33.723 170.144)" fill="#546068"/>
  <path id="Tracciato_3" data-name="Tracciato 3" d="M247.9-155.779c0-.463.254-.568.569-.568h4.355c.463,0,.568.255.568.568v.48c0,.313-.105.568-.568.568h-3.144v2.8h2.2c.465,0,.569.254.569.569v.417c0,.316-.1.569-.569.569h-2.2v3.158h3.339c.464,0,.568.255.568.569v.48c0,.313-.1.568-.568.568h-4.55c-.315,0-.569-.1-.569-.568Z" transform="translate(-33.723 170.144)" fill="#546068"/>
  <path id="Tracciato_4" data-name="Tracciato 4" d="M260.236-150.973c0-3.563,1.034-5.508,3.548-5.508s3.562,1.945,3.562,5.508c0,3.531-1.092,5.506-3.562,5.506s-3.548-1.975-3.548-5.506m5.3,0c0-2.8-.583-3.967-1.751-3.967-1.151,0-1.736,1.168-1.736,3.967,0,2.9.63,3.98,1.736,3.98,1.137,0,1.751-1.077,1.751-3.98" transform="translate(-33.723 170.144)" fill="#546068"/>
  <path id="Tracciato_5" data-name="Tracciato 5" d="M270.287-155.778c0-.464.254-.569.569-.569h2.274c2.306,0,3.413.884,3.413,2.979a2.619,2.619,0,0,1-1.512,2.62l1.677,4.608c.18.495-.1.54-.375.54h-.943c-.329,0-.493-.225-.614-.54l-1.345-3.891h-1.364v3.863c0,.463-.253.568-.568.568h-.643c-.315,0-.569-.1-.569-.568Zm2.8,4.237a1.46,1.46,0,0,0,1.647-1.663c0-1.511-.854-1.6-1.662-1.6h-1v3.263Z" transform="translate(-33.723 170.144)" fill="#546068"/>
  <path id="Tracciato_6" data-name="Tracciato 6" d="M279.647-155.779c0-.463.254-.568.568-.568h.644c.314,0,.568.1.568.568v9.61c0,.463-.254.568-.568.568h-.644c-.314,0-.568-.1-.568-.568Z" transform="translate(-33.723 170.144)" fill="#546068"/>
  <path id="Tracciato_7" data-name="Tracciato 7" d="M284.387-150.989c0-3.172.958-5.492,3.533-5.492,1.915,0,2.754,1.137,3.1,2.874.059.3-.015.568-.463.614l-.586.059c-.344.029-.537-.2-.628-.523-.253-.929-.7-1.424-1.421-1.424-1.137,0-1.722,1.109-1.722,3.892,0,2.814.449,3.982,1.752,3.982,1.018,0,1.556-.808,1.556-1.961,0-.165,0-.359-.015-.538h-1c-.464,0-.569-.225-.569-.54v-.329c0-.313.1-.569.569-.569h2.08c.315,0,.569.1.569.569v4.206c0,.464-.254.569-.569.569h-.3c-.315,0-.569-.1-.569-.569v-.3h-.03a2.5,2.5,0,0,1-2.14,1c-2.067,0-3.144-1.569-3.144-5.522" transform="translate(-33.723 170.144)" fill="#546068"/>
  <path id="Tracciato_8" data-name="Tracciato 8" d="M294.333-155.779c0-.463.254-.568.568-.568h.644c.314,0,.568.1.568.568v9.61c0,.463-.254.568-.568.568H294.9c-.314,0-.568-.1-.568-.568Z" transform="translate(-33.723 170.144)" fill="#546068"/>
  <path id="Tracciato_9" data-name="Tracciato 9" d="M299.491-155.779c0-.463.254-.568.568-.568h1.064c.344,0,.509.21.657.525l2.709,6h.03v-5.958c0-.463.256-.568.569-.568h.48c.313,0,.569.1.569.568v9.61c0,.463-.256.568-.569.568h-.614c-.344,0-.509-.21-.659-.523l-3.189-6.9h-.029v6.856c0,.463-.255.568-.568.568h-.45c-.314,0-.568-.1-.568-.568Z" transform="translate(-33.723 170.144)" fill="#546068"/>
  <path id="Tracciato_10" data-name="Tracciato 10" d="M311.049-155.793c.06-.464.375-.554.7-.554H313a.608.608,0,0,1,.688.554l2.245,9.638c.106.435-.15.555-.434.555h-.838c-.328,0-.464-.239-.538-.569l-.45-2.186h-2.575l-.434,2.186c-.075.33-.208.569-.537.569h-.808c-.284,0-.54-.134-.449-.555Zm2.3,5.867-.958-4.685h-.045l-.941,4.685Z" transform="translate(-33.723 170.144)" fill="#546068"/>
  <path id="Tracciato_11" data-name="Tracciato 11" d="M318.692-155.779c0-.463.253-.568.568-.568h.643c.315,0,.568.1.568.568v8.561H323.5c.464,0,.568.255.568.569v.48c0,.313-.1.568-.568.568H319.26c-.315,0-.568-.1-.568-.568Z" transform="translate(-33.723 170.144)" fill="#546068"/>
  <path id="Tracciato_12" data-name="Tracciato 12" d="M258.746-130.455q3.3-4.173,7.208-4.179,3.273,0,3.275,3.666,0,4.091-4.292,7.212a18.71,18.71,0,0,1-10.3,3.441,20.471,20.471,0,0,1,4.106-10.14m41.344-1.18q-5.5,5.847-10.913,16.379l1.618-8.351a59.844,59.844,0,0,0,1.422-8.3c0-1.708-.67-2.556-2.005-2.556a15.986,15.986,0,0,0-4.909,1.031,4.176,4.176,0,0,1,.94,2.792,30.522,30.522,0,0,1-.353,4.11,56.332,56.332,0,0,1-10.749,11.493q-7.436,5.868-13.611,5.869-7.119,0-7.121-8.394a25.767,25.767,0,0,0,14.233-3.96q6.186-3.96,6.187-9.1a6.191,6.191,0,0,0-2.226-4.991,8.937,8.937,0,0,0-5.931-1.872,17.2,17.2,0,0,0-13.111,5.916,20.325,20.325,0,0,0-5.435,14.247q0,5.768,2.993,9.107a10.468,10.468,0,0,0,8.172,3.328q8.066,0,17.069-6.884a51.876,51.876,0,0,0,8.263-7.93l-1.132,5.651a48.165,48.165,0,0,0-1.03,6.571c0,1.72.981,2.592,2.938,2.592a8.114,8.114,0,0,0,3.151-.92l-.039-.49c0-1.456.868-3.89,2.584-7.305a72.116,72.116,0,0,1,6.08-9.95q5.649-7.753,9.289-7.754a3.386,3.386,0,0,1,3.1,2.264q4.366-3.33,4.367-5.333a2.723,2.723,0,0,0-1.153-2.2,4.278,4.278,0,0,0-2.721-.908q-4.467,0-9.964,5.847m103.6,1.18q3.3-4.173,7.2-4.179,3.273,0,3.276,3.666,0,4.091-4.3,7.212a18.677,18.677,0,0,1-10.287,3.441,20.333,20.333,0,0,1,4.105-10.14m-5.188-1.111a20.321,20.321,0,0,0-5.436,14.247q0,5.768,3,9.107a10.454,10.454,0,0,0,8.167,3.328q8.065,0,17.072-6.884a53.156,53.156,0,0,0,14.628-17.4l-2.438-1.342a59.656,59.656,0,0,1-13.41,15.471q-7.437,5.868-13.61,5.869-7.119,0-7.121-8.394a25.763,25.763,0,0,0,14.232-3.96q6.186-3.96,6.186-9.1a6.191,6.191,0,0,0-2.226-4.991,8.937,8.937,0,0,0-5.932-1.872,17.2,17.2,0,0,0-13.108,5.916M151.41-145.6a11.254,11.254,0,0,0-4.307,9.073q0,4.732,6.061,10.366l3.156,2.929q6.517,6.081,6.518,9.557a7.128,7.128,0,0,1-2.958,5.656A10.69,10.69,0,0,1,152.9-105.6a9.407,9.407,0,0,1-7.107-2.678,10.156,10.156,0,0,1-2.569-7.353q-3.873,2.912-3.873,5.284a6.923,6.923,0,0,0,3.2,5.807,13.611,13.611,0,0,0,8.114,2.293,18.343,18.343,0,0,0,12.141-4.009,12.547,12.547,0,0,0,4.823-10.088q0-5.226-7.058-11.8l-2.588-2.382a47.144,47.144,0,0,1-4.9-4.879,5.658,5.658,0,0,1-.785-3.247,6.94,6.94,0,0,1,2.4-5.353,8.484,8.484,0,0,1,5.9-2.17,8.486,8.486,0,0,1,8.127,4.83,7.232,7.232,0,0,0,1.547-3.939c0-1.149-.722-2.081-2.182-2.8a13.063,13.063,0,0,0-5.71-1.069,16.636,16.636,0,0,0-10.97,3.557m32.888.128a14.966,14.966,0,0,1-5.521,1.944l-.406-.031a9.482,9.482,0,0,0-.66,3.616c0,.94.381,1.4,1.152,1.4q1.72,0,6.6-4.075a13.952,13.952,0,0,0,4.481-6.63,24.522,24.522,0,0,1-5.647,3.775m137.718,15.018q3.3-4.173,7.208-4.179,3.273,0,3.271,3.666,0,4.091-4.293,7.212a18.693,18.693,0,0,1-10.3,3.441,20.522,20.522,0,0,1,4.111-10.14m59.2-23.074q-1.838,1.656-3.158,6.092l-.509,1.756a21.224,21.224,0,0,1-3.306.227H359.084q2.412-6.794,4.654-9.675c-.631-.039-1.089-.058-1.379-.058a8,8,0,0,0-5.51,1.658c-1.225,1.1-2.285,3.137-3.161,6.092l-.574,1.983h-4.336a6.646,6.646,0,0,0-3.705.775,12.224,12.224,0,0,0-2.752,3.79,11.411,11.411,0,0,1,4.853-.86h4.851L349-131.245c-.771,2.719-1.382,5.172-1.836,7.381a54.28,54.28,0,0,1-8.749,8.829q-7.444,5.868-13.611,5.869-7.119,0-7.121-8.394a25.77,25.77,0,0,0,14.227-3.96q6.178-3.96,6.191-9.1a6.193,6.193,0,0,0-2.225-4.991,8.935,8.935,0,0,0-5.932-1.872,17.208,17.208,0,0,0-13.109,5.916,20.325,20.325,0,0,0-5.44,14.247c0,3.845,1.008,6.881,3,9.107a10.453,10.453,0,0,0,8.171,3.328q8.065,0,17.066-6.884a51.662,51.662,0,0,0,6.615-6.061c-.053.684-.087,1.349-.087,1.946a13.454,13.454,0,0,0,2.164,7.926,6.6,6.6,0,0,0,5.616,3.073q3.9,0,8.655-3.41t4.75-6.216a5.293,5.293,0,0,0-.776-2.467,12.432,12.432,0,0,1-4.143,4.737,9.435,9.435,0,0,1-5.387,2.1q-4.8,0-4.794-6.659a53.5,53.5,0,0,1,1.933-12.21c.028-.051.052-.1.081-.15l-.038-.024c.428-1.705,2.629-9.211,3.2-11.154.1-.306.237-.775.429-1.407H376.4l-3.033,10.5q-2.834,9.969-2.844,15.362a13.463,13.463,0,0,0,2.174,7.926,6.6,6.6,0,0,0,5.609,3.073q3.909,0,8.658-3.41t4.75-6.216a5.291,5.291,0,0,0-.771-2.467,12.4,12.4,0,0,1-4.154,4.737,9.4,9.4,0,0,1-5.382,2.1q-4.79,0-4.793-6.659c0-4.022,2.86-15.653,5.177-23.538q.146-.459.43-1.407h16.134q3.246,0,4.438-.9t1.908-3.84a14.2,14.2,0,0,1-6.086,1.031H383.458q2.406-6.794,4.649-9.675c-.635-.039-1.093-.058-1.378-.058a8.017,8.017,0,0,0-5.51,1.658m-179.162-.228a15.426,15.426,0,0,1-7.781-1.954v.662q0,5.511,6.6,5.515a13.076,13.076,0,0,0,1.952-.172l-4.934,24.815a72.677,72.677,0,0,1-7.921,9.683q-5.976,6.042-9.559,6.042-3.02,0-3.016-3.557a34.531,34.531,0,0,1,.829-5.251l1.122-5.594a34.652,34.652,0,0,0,.829-6.335q0-2.982-2.12-2.985a29.6,29.6,0,0,0-4.683.865,3.72,3.72,0,0,1,.978,2.669,55.923,55.923,0,0,1-1.406,9.587l-.632,3.161a22.956,22.956,0,0,0-.578,4.11,7.712,7.712,0,0,0,1.97,5.507,6.784,6.784,0,0,0,5.18,2.1q5.283,0,11.92-6.422a60.769,60.769,0,0,0,5.772-6.581,25.072,25.072,0,0,0-.323,3.609,10.551,10.551,0,0,0,2.072,6.788,6.583,6.583,0,0,0,5.42,2.606q4.618,0,10.624-6.422a70.9,70.9,0,0,0,8.845-12.158,46.247,46.247,0,0,1,2.549,14.273,18.509,18.509,0,0,1-.635,4.356,14.515,14.515,0,0,0,5.343-1.143,14.821,14.821,0,0,0,3.956-3.848,125.184,125.184,0,0,0,8.952-13.036q4.11-6.891,4.119-8.841c0-1.457-1.442-2.758-4.308-3.907a34.928,34.928,0,0,1-3.7,11.681,71.3,71.3,0,0,1-8.306,13.153,82.609,82.609,0,0,0-4.629-20.024q-3.231-8.289-6.389-8.284a10.09,10.09,0,0,0-4.481,1.262,34.006,34.006,0,0,1,6.186,10.617,117.933,117.933,0,0,1-9.294,13.2q-3.49,3.888-6.938,3.892-3.555,0-3.555-4.851a40.872,40.872,0,0,1,.887-6.406l6.663-34.541a13.429,13.429,0,0,1-7.579,2.152" transform="translate(-33.723 170.144)" fill="#546068"/>
  <path id="Tracciato_13" data-name="Tracciato 13" d="M89.107-170.115c-17,.568-46.318,12.344-52.533,29.1S32.792-92.5,59.237-86.277c22.156,5.209,56.381-6.056,62.5-27.685,5.739-20.285-8.987-35.554-17.371-38.571-10.953-4.139-26.77,2.443-29.91,4.125-12.848,6.336-29.661,22.9-14.367,38.947,12.429,13.041,43.729-6.274,40.423-15.9-2.732-7.949-4.508-3.473-9.833,0-.622.407-18.14,14.469-23.138,5.745-1.989-3.473.3-9.9,8-15.91,7.635-5.957,16.687-7.687,20.419-7.124,14.788,2.23,18.945,15.625,13.065,25.874-8.794,15.326-27.627,22.079-43.055,19.5A24.028,24.028,0,0,1,46.433-114c-2.871-8.658-.7-19.73,3.825-25.554,7.72-9.941,15.294-15.9,39.875-23.282,1.835-.552,7.236-1.757,6.555-3.408-1.407-3.413-3.619-3.9-6.248-3.9-.434,0-.879.014-1.333.029" transform="translate(-33.723 170.144)" fill="url(#linear-gradient)"/>
  <path id="Tracciato_14" data-name="Tracciato 14" d="M430.533-151.194a5.8,5.8,0,0,1,5.992-6.146c3.724,0,5.967,2.7,5.967,6.146a5.816,5.816,0,0,1-5.967,6.146,5.836,5.836,0,0,1-5.992-6.146m10.761,0c0-2.78-1.734-5.024-4.769-5.024a4.684,4.684,0,0,0-4.819,5.024c0,2.856,1.76,5.023,4.819,5.023,3.035,0,4.769-2.167,4.769-5.023m-7.089,2.856v-5.738c0-.535.179-.714.714-.714H436.5c1.709,0,2.754.587,2.754,2.04a1.87,1.87,0,0,1-1.3,1.836l1.275,2.448c.178.357.129.612-.127.612h-.586c-.408,0-.535-.255-.714-.612l-1.046-2.117h-1.3v2.245c0,.332-.128.484-.434.484h-.306c-.331,0-.51-.152-.51-.484m2.346-3.29c.815,0,1.479-.229,1.479-1.1,0-.841-.713-.994-1.454-.994h-1.121v2.09Z" transform="translate(-33.723 170.144)" fill="#546068"/>
</svg>
