<svg xmlns="http://www.w3.org/2000/svg" width="1239.504" height="1181.486" viewBox="0 0 1239.504 1181.486">
  <g id="Raggruppa_3172" data-name="Raggruppa 3172" transform="translate(-874.15 231.486)">
    <path id="Tracciato_3687" data-name="Tracciato 3687" d="M802.4-169.742C566.487-161.858,159.555,1.581,73.3,234.11s-52.49,673.437,314.54,759.736c307.5,72.3,782.512-84.051,867.438-384.24,79.652-281.536-124.73-493.454-241.092-535.327C862.165,16.834,642.641,108.186,599.061,131.53,420.744,219.467,187.4,449.318,399.662,672.076c172.5,181,606.915-87.077,561.031-220.69-37.917-110.324-62.567-48.2-136.472,0-8.633,5.649-251.765,200.815-321.132,79.735-27.605-48.2,4.108-137.458,110.963-220.815,105.966-82.677,231.6-106.688,283.4-98.874,205.242,30.95,262.938,216.859,181.329,359.105C956.723,783.246,695.34,876.971,481.215,841.177c-122.524-20.5-226.089-96.5-271.085-232.154-39.847-120.164-9.715-273.832,53.087-354.664C370.363,116.388,475.483,33.669,816.642-68.772c25.468-7.661,100.428-24.385,90.977-47.3-19.528-47.369-50.228-54.073-86.716-54.073-6.024.014-12.2.194-18.5.4" transform="translate(840.428 -61.342)" fill="#fff" opacity="0.274"/>
  </g>
</svg>
